<svg width="300" height="100" xmlns="http://www.w3.org/2000/svg">
 <!-- Created with Method Draw - http://github.com/duopixel/Method-Draw/ -->
 <defs>
  <linearGradient y2="0" x2="0" y1="1" x1="1" id="svg_2">
   <stop offset="0.140625" stop-color="#fc0000"/>
   <stop offset="0.40625" stop-color="#03ffff"/>
   <stop offset="0.4375" stop-color="#03ffff"/>
   <stop offset="0.859375" stop-color="#fc0000"/>
   <stop offset="1" stop-color="#03ffff"/>
   <stop offset="1" stop-color="#03ffff"/>
  </linearGradient>
  <linearGradient y2="1" x2="1" y1="0" x1="0.4375" id="svg_5">
   <stop offset="0.632813" stop-color="#3affff"/>
   <stop offset="1" stop-color="#c50000"/>
  </linearGradient>
 </defs>
 <g>
  <title>background</title>
  <rect fill="#fff" id="canvas_background" height="102" width="302" y="-1" x="-1"/>
  <g display="none" overflow="visible" y="0" x="0" height="100%" width="100%" id="canvasGrid">
   <rect fill="url(#gridpattern)" stroke-width="0" y="0" x="0" height="100%" width="100%"/>
  </g>
 </g>
 <g>
  <title>Layer 1</title>
  <path stroke="url(#svg_2)" id="svg_1" d="m52.103185,87.121082c0,0 -9.313265,-0.63295 -14.245555,-3.052687c-4.93229,-2.419767 -7.234008,-5.504961 -7.234008,-5.504961c0,0 2.588432,2.66112 6.220801,4.67741c2.214547,1.229255 4.817283,2.218871 7.458076,2.218871c0,0 -4.077161,-2.11724 -7.135426,-0.604993c0,0 2.203136,-1.391349 6.017433,-0.332699c3.814522,1.05862 5.721429,0.453627 5.721429,0.453627c0,0 -6.444611,-0.030232 -9.239722,-1.724077c-2.795143,-1.693846 -3.4857,-2.661563 -3.4857,-2.661563c0,0 2.893725,2.752466 5.129711,3.085194c2.235986,0.332729 6.083165,-0.060671 6.083165,-0.060671c0,0 -3.978611,0.090903 -5.228293,-0.423424c-1.249457,-0.514061 -6.181747,-1.542479 -7.069468,0.604993c0,0 0.986304,-2.268607 5.491158,-1.60315c4.504854,0.665457 4.932547,0.453863 4.932547,0.453863c0,0 -7.990554,-2.843398 -12.462526,-1.240219c-4.472004,1.60315 -4.176032,2.964267 -4.176032,2.964267c0,0 0.296004,-4.718576 11.212876,-3.871757c0,0 -5.096604,-0.695689 -6.971143,-2.087008c-1.874025,-1.391349 -2.005714,-2.298632 -2.005714,-2.298632c0,0 2.137179,2.994292 4.767975,3.024524c2.630572,0.030439 3.386861,-0.181362 3.386861,-0.181362c0,0 -5.129679,-1.088852 -7.563086,-0.847056c-2.433182,0.242062 -6.378911,1.028418 -8.450615,-2.419737c0,0 1.940014,3.297025 7.234265,2.147709c5.293993,-1.149523 8.614897,0.120898 8.614897,0.120898c0,0 -8.023179,-1.421581 -9.667415,-2.843132c-1.644011,-1.421581 -1.841175,-3.871786 -1.841175,-3.871786c0,0 0.690557,4.113583 4.077161,4.507012c3.387118,0.393163 8.516572,0.30226 9.864837,1.724048c0,0 -3.386861,-2.298839 -6.905411,-1.996342c-3.518293,0.302497 -8.943976,4.476543 -11.706012,3.387691c-2.762004,-1.088852 -4.011686,-0.181569 -4.011686,-0.181569c0,0 1.1511,-1.05862 3.123707,-0.574791c1.973122,0.484095 2.400557,1.209987 5.787418,-0.937486c3.386861,-2.147472 9.141172,-4.809242 12.791155,-2.51064c0,0 -17.054551,-4.345124 -18.895727,-13.177076c0,0 1.621382,5.888697 9.951719,8.509744c8.330594,2.621047 8.812544,2.419767 8.812544,2.419767c0,0 -12.845669,-1.250503 -18.852366,-11.897435c0,0 5.217075,8.267681 13.328358,9.356534c0,0 -6.839679,-2.177675 -12.14489,-8.831922c-5.304472,-6.654484 -5.524522,-8.872911 -5.524522,-8.872911c0,0 6.445576,10.646902 18.634277,12.542708c0,0 -9.547394,-2.511083 -16.386848,-10.526447c-6.839422,-8.015364 -4.702018,-9.588282 -4.702018,-9.588282c0,0 -1.479697,-2.873393 -0.361961,-3.508619c0,0 -2.203136,-2.298839 -1.578279,-4.174047c0,0 1.578279,7.107874 9.634565,11.766016c8.056254,4.657905 8.746811,5.232667 8.746811,5.232667c0,0 -8.352258,-5.262899 -10.982829,-7.80377c-2.630572,-2.540665 -5.589997,-4.506775 -7.299965,-9.951036c0,0 1.644268,5.383797 6.839679,9.073985c5.195186,3.690188 6.214822,3.629517 6.214822,3.629517c0,0 -10.653976,-5.020866 -13.185933,-13.338727c0,0 1.479697,6.140157 13.218815,12.008049c0,0 -11.771969,-6.38219 -13.218815,-13.187804c0,0 -0.262896,-0.998156 0.230239,-1.482015c0,0 -0.591975,-1.300683 -0.394554,-2.934064c0.197164,-1.633175 0.427436,-3.387455 0.427436,-3.387455c0,0 -0.526018,6.89628 6.773722,12.219643c0,0 -8.615154,-9.498059 -5.545704,-17.321541c0,0 -0.658189,4.315306 1.402554,6.291287c0,0 -1.754036,-3.467866 -0.920604,-7.541376c0,0 -0.219536,4.315336 1.972864,8.227195c2.192432,3.911859 9.207129,11.493722 9.207129,11.493722c0,0 -8.242233,-8.872675 -9.557647,-13.873386c-1.315157,-5.000711 -0.570311,-8.267268 -0.570311,-8.267268c0,0 -0.744846,4.677853 2.455554,9.356327c3.2004,4.678296 4.296729,5.202464 4.296729,5.202464c0,0 -8.813026,-8.429155 -5.481161,-17.785245c0,0 -0.218829,9.477225 3.419968,13.550528c3.639504,4.07348 4.734868,4.194408 4.734868,4.194408c0,0 -7.497129,-5.444497 -7.234233,-13.066669c0.263346,-7.622201 1.666864,-8.025442 1.666864,-8.025442c0,0 -3.113486,6.452081 1.884536,12.663192c4.998247,6.211112 3.990022,5.041227 3.990022,5.041227c0,0 -7.102318,-8.468991 -5.699283,-15.083166c1.403036,-6.614145 4.077161,-6.53332 4.077161,-6.53332c0,0 -2.937022,1.774228 -2.80559,5.847501c0.131464,4.073303 4.34054,11.977817 4.34054,11.977817c0,0 -4.69154,-10.848212 -3.419936,-14.19583c1.271122,-3.347382 3.945986,-4.355409 3.945986,-4.355409c0,0 -5.218072,2.742418 -2.192914,10.082455c0,0 -1.884986,-6.976456 3.15659,-10.243219c0,0 -3.594729,3.145865 -2.104297,8.993396c0,0 -0.438396,-7.179066 4.340282,-9.638905c0,0 -3.068229,2.218457 -3.112297,6.69497c0,0 0.657707,-4.517266 4.296279,-7.057931c0,0 -2.762261,3.87155 -2.586536,9.436945c0,0 2.060743,-5.484127 3.06945,-9.517327c0,0 0.174793,2.177911 -0.570311,4.879577c-0.745104,2.702079 -1.095847,2.943905 -1.095847,2.943905c0,0 2.674125,-3.629517 2.805815,-7.178416c0,0 0.131464,3.468516 -1.008225,6.372349c0,0 2.170768,-1.605573 2.444143,-5.163219c0.004275,-0.053017 0.007618,-0.106477 0.010929,-0.16035c0,0 0.613414,5.201991 -1.622572,9.598153c-2.235986,4.396368 -3.288279,4.799401 -3.288279,4.799401c0,0 4.954918,-4.315543 5.700022,-10.283971c0,0 0.087621,3.346939 -1.227536,6.250564c-1.315189,2.903803 -2.71845,5.12226 -2.71845,5.12226c0,0 6.620111,-5.525736 5.524265,-15.446097c0,0 1.271122,5.524643 0.131464,9.719051c-1.139689,4.194408 -6.752315,10.646932 -6.752315,10.646932c0,0 8.725404,-7.09824 9.119733,-18.349929c0,0 1.052293,6.654247 -2.959425,12.703502c0,0 5.91885,-6.170182 5.787418,-12.038074c0,0 1.315414,2.96406 0.197164,7.017208c-1.117768,4.053119 -6.444611,13.550528 -11.969133,15.849367c0,0 14.99429,-7.440839 14.007955,-20.204775c0,0 1.644011,5.807221 -0.394554,11.433287c-2.038597,5.62583 -9.799104,14.215956 -9.799104,14.215956c0,0 11.114262,-9.436945 12.75853,-19.721123c0,0 0.526018,-3.145422 -0.131689,-5.020866c0,0 2.696529,1.088852 2.893693,5.746994c0.197164,4.657905 -2.43315,10.949399 -4.274582,15.365272c-1.841432,4.416079 -5.787161,10.283971 -5.787161,10.283971c0,0 12.824005,-18.027071 10.982347,-26.85923c0,0 3.288504,3.811086 2.893693,8.771724c-0.394329,4.960372 -3.15659,18.752963 -10.850915,24.983786c0,0 8.286301,-6.049254 10.588019,-17.059117c0,0 1.183725,-5.867892 0.986336,-9.074221c0,0 1.644011,6.775382 1.052261,11.856919c-0.59175,5.081537 -6.773722,16.45436 -6.773722,16.45436c0,0 6.773722,-9.497616 7.234008,-15.425972c0,0 0.723439,3.569053 0.197421,6.835846c-0.526018,3.266556 -3.551175,9.376481 -6.116272,12.945534c0,0 5.392833,-7.138106 6.510826,-10.283971c1.118025,-3.145658 0.920604,-4.960402 0.920604,-4.960402c0,0 1.315414,9.800113 -0.789139,14.397554c-2.104554,4.597441 -8.746586,11.433287 -9.206872,14.63938c0,0 3.090857,-7.440603 9.798847,-8.590126c6.70799,-1.149316 10.522287,0.604993 10.522287,0.604993c0,0 -10.193433,-3.02473 -15.651998,2.66177c0,0 -2.762004,3.085194 -2.827961,5.867892c0,0 7.102801,-4.597441 8.220569,-10.888965c1.118218,-6.291287 6.313661,-7.259241 6.313661,-7.259241c0,0 -5.787418,1.996342 -5.721686,7.440839c0.065732,5.444468 -6.576558,11.856682 -8.154836,11.67532c0,0 5.392833,-1.391349 7.299965,-5.565395c0,0 -1.249682,4.234481 -3.945729,6.684479c-2.696529,2.449969 -1.808807,3.508589 -1.808807,3.508589c0,0 0.920829,-2.631331 3.617132,-4.839504c2.696529,-2.207936 6.247672,-6.019022 6.280554,-8.590126c0.03285,-2.570867 2.959425,-5.141971 2.959425,-5.141971c0,0 -2.301718,2.692002 -2.400557,4.62788c-0.098582,1.935671 0.230271,4.960402 -3.616875,7.501274c-3.847404,2.540665 -5.458565,7.107904 -5.392833,9.104217c0,0 2.685568,-7.128236 10.57754,-8.539532c0,0 -7.541454,1.370987 -10.215579,9.195149c0,0 4.997765,-7.823718 11.662169,-9.880524c0,0 -7.102543,2.782698 -10.522287,9.598389c0,0 2.016707,-4.840154 8.329886,-5.041434c0,0 -5.261143,0.645066 -7.409026,5.202435c0,0 0.964382,-1.935228 4.559625,-2.621047c3.595211,-0.685819 6.619886,-3.065276 5.874783,-5.324013c0,0 0.920604,3.145215 -3.770229,5.242744c-4.691315,2.097529 -6.662283,7.120079 -6.662283,7.120079c0,0 3.820147,3.327079 6.908786,6.130789c-0.243836,1.570081 -1.085882,2.002105 -1.869429,2.168248c-0.280157,0.0594 -6.820618,-6.706319 -7.193283,-6.841106z" stroke-width="1.5" fill="url(#svg_5)"/>
  <text stroke="url(#svg_2)" transform="matrix(2.022710854906384,0,0,2.0401574271479017,-102.24215963181545,-124.84668716942333) " xml:space="preserve" text-anchor="start" font-family="'Times New Roman', Times, serif" font-size="24" id="svg_6" y="101.904012" x="90.537251" stroke-width="0" fill="#000000">migao.pub</text>
 </g>
</svg>